<svg xmlns="http://www.w3.org/2000/svg" width="640" height="360"><clipPath id="a"><path d="M0 0h594v316H0z"/></clipPath><path fill="#fafafa" d="M0 0h640v360H0z"/><path fill="#fff5e6" d="M46 3h594v316H46z"/><g stroke="#d3d3d3"><path d="M126.24 3v316M206.48 3v316M286.72 3v316M366.96 3v316M447.2 3v316M527.44 3v316M607.68 3v316M46 240.87h594M46 162.74h594M46 84.61h594M46 6.48h594"/></g><path stroke="#fff" stroke-width="2" d="M46 3v316M46 319h594"/><g clip-path="url(#a)" transform="translate(46 3)"><g stroke-miterlimit="2"><g fill="#ff9700" stroke="#fff"><path d="M107.7 267.21a35.36 35.36 0 1 1-35.36-35.36 35.36 35.36 0 0 1 35.36 35.36z" opacity=".7"/><path d="M50.67 306.05a35.3 35.3 0 1 1-35.3-35.3 35.3 35.3 0 0 1 35.3 35.3zM490.6 187.19a17.14 17.14 0 1 1-17.14-17.14 17.14 17.14 0 0 1 17.14 17.14z" opacity=".7"/><path d="M41.44 302.74a15.57 15.57 0 1 1-15.57-15.57 15.57 15.57 0 0 1 15.57 15.57z" opacity=".7"/><path d="M25.63 309.34a14.31 14.31 0 1 1-14.31-14.31 14.31 14.31 0 0 1 14.31 14.31zM59.08 294.15a13.77 13.77 0 1 1-13.77-13.77 13.77 13.77 0 0 1 13.77 13.77z" opacity=".7"/><path d="M27.4 312.16a13.74 13.74 0 1 1-13.74-13.74 13.74 13.74 0 0 1 13.74 13.74z" opacity=".7"/><path d="M32.63 311.46a12.24 12.24 0 1 1-12.24-12.24 12.24 12.24 0 0 1 12.24 12.24zM83.48 215.06a11.32 11.32 0 1 1-11.32-11.32 11.32 11.32 0 0 1 11.32 11.32zM70.76 290.2a10.59 10.59 0 1 1-10.59-10.59 10.59 10.59 0 0 1 10.59 10.59zM255.44 253.82a10.55 10.55 0 1 1-10.55-10.55 10.55 10.55 0 0 1 10.55 10.55z" opacity=".7"/><path d="M16.73 314.94a10.32 10.32 0 1 1-10.32-10.32 10.32 10.32 0 0 1 10.32 10.32z" opacity=".7"/><path d="M35.51 308.76a10.04 10.04 0 1 1-10.04-10.04 10.04 10.04 0 0 1 10.04 10.04z" opacity=".7"/><path d="M35.78 299.02a9.83 9.83 0 1 1-9.83-9.83 9.83 9.83 0 0 1 9.83 9.83z" opacity=".7"/><path d="M33.66 298.97a9.29 9.29 0 1 1-9.29-9.29 9.29 9.29 0 0 1 9.29 9.29zM11.93 315.55a9.21 9.21 0 1 1-9.21-9.21 9.21 9.21 0 0 1 9.21 9.21zM32.89 248.17a8.82 8.82 0 1 1-8.82-8.82 8.82 8.82 0 0 1 8.82 8.82zM353.47 250.87a8.58 8.58 0 1 1-8.58-8.58 8.58 8.58 0 0 1 8.58 8.58zM51.31 284.62a7.96 7.96 0 1 1-7.96-7.96 7.96 7.96 0 0 1 7.96 7.96zM300.53 254.29a7.74 7.74 0 1 1-7.74-7.74 7.74 7.74 0 0 1 7.74 7.74z" opacity=".7"/><path d="M15.2 314.64a7.5 7.5 0 1 1-7.5-7.5 7.5 7.5 0 0 1 7.5 7.5zM53.12 275.35a7.25 7.25 0 1 1-7.25-7.25 7.25 7.25 0 0 1 7.25 7.25zM245.39 269.3a7.23 7.23 0 1 1-7.23-7.23 7.23 7.23 0 0 1 7.23 7.23z" opacity=".7"/><path d="M15.26 311.49a6.9 6.9 0 1 1-6.9-6.9 6.9 6.9 0 0 1 6.9 6.9z" opacity=".7"/><path d="M21.27 313.45a6.85 6.85 0 1 1-6.85-6.85 6.85 6.85 0 0 1 6.85 6.85zM231.91 206.12a6.77 6.77 0 1 1-6.77-6.77 6.77 6.77 0 0 1 6.77 6.77zM47.63 305.12a6.75 6.75 0 1 1-6.75-6.75 6.75 6.75 0 0 1 6.75 6.75zM208.03 268.53a6.48 6.48 0 1 1-6.48-6.48 6.48 6.48 0 0 1 6.48 6.48z" opacity=".7"/><path d="M11.63 314.98a6.37 6.37 0 1 1-6.37-6.37 6.37 6.37 0 0 1 6.37 6.37zM78.53 281.56a6.37 6.37 0 1 1-6.37-6.37 6.37 6.37 0 0 1 6.37 6.37z" opacity=".7"/><path d="M11.42 313.03a6.36 6.36 0 1 1-6.36-6.36 6.36 6.36 0 0 1 6.36 6.36zM29.09 288.63a6.25 6.25 0 1 1-6.25-6.25 6.25 6.25 0 0 1 6.25 6.25zM38.02 278.04a6.23 6.23 0 1 1-6.23-6.23 6.23 6.23 0 0 1 6.23 6.23z" opacity=".7"/><path d="M35.84 290.96a6.21 6.21 0 1 1-6.21-6.21 6.21 6.21 0 0 1 6.21 6.21zM8.69 314.76a5.96 5.96 0 1 1-5.96-5.96 5.96 5.96 0 0 1 5.96 5.96zM342.72 175.1a5.82 5.82 0 1 1-5.82-5.82 5.82 5.82 0 0 1 5.82 5.82zM126.93 265.94a5.78 5.78 0 1 1-5.78-5.78 5.78 5.78 0 0 1 5.78 5.78zM32.7 304.64a5.73 5.73 0 1 1-5.73-5.73 5.73 5.73 0 0 1 5.73 5.73zM17.03 288.22a5.56 5.56 0 1 1-5.56-5.56 5.56 5.56 0 0 1 5.56 5.56z" opacity=".7"/><path d="M15.42 311.6a5.53 5.53 0 1 1-5.53-5.53 5.53 5.53 0 0 1 5.53 5.53zM46.04 304.65a5.46 5.46 0 1 1-5.46-5.46 5.46 5.46 0 0 1 5.46 5.46zM68.58 264.45a5.45 5.45 0 1 1-5.45-5.45 5.45 5.45 0 0 1 5.45 5.45z" opacity=".7"/><path d="M20.02 311a5.39 5.39 0 1 1-5.39-5.39 5.39 5.39 0 0 1 5.39 5.39zM8.27 313.44a5.33 5.33 0 1 1-5.33-5.33 5.33 5.33 0 0 1 5.33 5.33z" opacity=".7"/><path d="M14.2 313.58a5.16 5.16 0 1 1-5.16-5.16 5.16 5.16 0 0 1 5.16 5.16z" opacity=".7"/><path d="M8.53 315.17a5.06 5.06 0 1 1-5.06-5.06 5.06 5.06 0 0 1 5.06 5.06zM23.66 312.65a4.93 4.93 0 1 1-4.93-4.93 4.93 4.93 0 0 1 4.93 4.93z" opacity=".7"/><path d="M15.84 313.91a4.91 4.91 0 1 1-4.91-4.91 4.91 4.91 0 0 1 4.91 4.91zM371.55 214.17a4.77 4.77 0 1 1-4.77-4.77 4.77 4.77 0 0 1 4.77 4.77z" opacity=".7"/><path d="M9.34 315.38a4.73 4.73 0 1 1-4.73-4.73 4.73 4.73 0 0 1 4.73 4.73zM33.41 309.26a4.43 4.43 0 1 1-4.43-4.43 4.43 4.43 0 0 1 4.43 4.43z" opacity=".7"/><path d="M9.77 314.44a4.42 4.42 0 1 1-4.42-4.42 4.42 4.42 0 0 1 4.42 4.42z" opacity=".7"/><path d="M9.71 313.98a4.4 4.4 0 1 1-4.4-4.4 4.4 4.4 0 0 1 4.4 4.4z" opacity=".7"/><path d="M8.75 315.38a4.2 4.2 0 1 1-4.2-4.2 4.2 4.2 0 0 1 4.2 4.2zM93.18 282.84a4.15 4.15 0 1 1-4.15-4.15 4.15 4.15 0 0 1 4.15 4.15z" opacity=".7"/><path d="M9.08 312.63a4.15 4.15 0 1 1-4.15-4.15 4.15 4.15 0 0 1 4.15 4.15zM56.64 233.07a4.12 4.12 0 1 1-4.12-4.12 4.12 4.12 0 0 1 4.12 4.12zM101.96 286.15a4.11 4.11 0 1 1-4.11-4.11 4.11 4.11 0 0 1 4.11 4.11zM39.21 302.66a3.97 3.97 0 1 1-3.97-3.97 3.97 3.97 0 0 1 3.97 3.97zM376.41 219.92a3.94 3.94 0 1 1-3.94-3.94 3.94 3.94 0 0 1 3.94 3.94z" opacity=".7"/><path d="M7.8 315.24a3.9 3.9 0 1 1-3.9-3.9 3.9 3.9 0 0 1 3.9 3.9zM38.46 307.74a3.89 3.89 0 1 1-3.89-3.89 3.89 3.89 0 0 1 3.89 3.89z" opacity=".7"/><path d="M6.78 315.7a3.89 3.89 0 1 1-3.89-3.89 3.89 3.89 0 0 1 3.89 3.89zM15.13 312.16a3.86 3.86 0 1 1-3.86-3.86 3.86 3.86 0 0 1 3.86 3.86z" opacity=".7"/><path d="M14.86 309.96a3.83 3.83 0 1 1-3.83-3.83 3.83 3.83 0 0 1 3.83 3.83z" opacity=".7"/><path d="M15.57 312.33a3.76 3.76 0 1 1-3.76-3.76 3.76 3.76 0 0 1 3.76 3.76z" opacity=".7"/><path d="M10.41 313.77a3.46 3.46 0 1 1-3.46-3.46 3.46 3.46 0 0 1 3.46 3.46z" opacity=".7"/><path d="M8.81 315.27a3.45 3.45 0 1 1-3.45-3.45 3.45 3.45 0 0 1 3.45 3.45z" opacity=".7"/><path d="M13.11 312.41a3.39 3.39 0 1 1-3.39-3.39 3.39 3.39 0 0 1 3.39 3.39zM4.58 315.56a3.33 3.33 0 1 1-3.33-3.33 3.33 3.33 0 0 1 3.33 3.33zM29.19 300.66a3.29 3.29 0 1 1-3.29-3.29 3.29 3.29 0 0 1 3.29 3.29z" opacity=".7"/><path d="M24.34 305.43a3.27 3.27 0 1 1-3.27-3.27 3.27 3.27 0 0 1 3.27 3.27zM338.14 212.73a3.2 3.2 0 1 1-3.2-3.2 3.2 3.2 0 0 1 3.2 3.2zM17.02 314.5a3.18 3.18 0 1 1-3.18-3.18 3.18 3.18 0 0 1 3.18 3.18zM34.48 302.83a3.14 3.14 0 1 1-3.14-3.14 3.14 3.14 0 0 1 3.14 3.14zM62.26 299.79a3.14 3.14 0 1 1-3.14-3.14 3.14 3.14 0 0 1 3.14 3.14zM141.57 274.56a3.06 3.06 0 1 1-3.06-3.06 3.06 3.06 0 0 1 3.06 3.06zM162.28 244.13a3.05 3.05 0 1 1-3.05-3.05 3.05 3.05 0 0 1 3.05 3.05zM418.93 244.66a3.04 3.04 0 1 1-3.04-3.04 3.04 3.04 0 0 1 3.04 3.04zM158.04 280.36a3.03 3.03 0 1 1-3.03-3.03 3.03 3.03 0 0 1 3.03 3.03z" opacity=".7"/><path d="M22.33 308.91a3.02 3.02 0 1 1-3.02-3.02 3.02 3.02 0 0 1 3.02 3.02zM34.82 285.26a3 3 0 1 1-3-3 3 3 0 0 1 3 3z" opacity=".7"/><path d="M17.76 313.05a2.97 2.97 0 1 1-2.97-2.97 2.97 2.97 0 0 1 2.97 2.97zM10.39 308.57a2.94 2.94 0 1 1-2.94-2.94 2.94 2.94 0 0 1 2.94 2.94zM121.68 265.73a2.93 2.93 0 1 1-2.93-2.93 2.93 2.93 0 0 1 2.93 2.93zM351.88 265.48a2.88 2.88 0 1 1-2.88-2.88 2.88 2.88 0 0 1 2.88 2.88zM49.51 268.63a2.87 2.87 0 1 1-2.87-2.87 2.87 2.87 0 0 1 2.87 2.87zM350.11 254.47a2.82 2.82 0 1 1-2.82-2.82 2.82 2.82 0 0 1 2.82 2.82zM561.5 269.6a2.78 2.78 0 1 1-2.78-2.78 2.78 2.78 0 0 1 2.78 2.78z" opacity=".7"/><path d="M9.63 314.03a2.77 2.77 0 1 1-2.77-2.77 2.77 2.77 0 0 1 2.77 2.77z" opacity=".7"/><path d="M6.02 314.99a2.73 2.73 0 1 1-2.73-2.73 2.73 2.73 0 0 1 2.73 2.73zM17.36 301.29a2.56 2.56 0 1 1-2.56-2.56 2.56 2.56 0 0 1 2.56 2.56zM83.63 268.05a2.47 2.47 0 1 1-2.47-2.47 2.47 2.47 0 0 1 2.47 2.47zM16.06 310.26a2.46 2.46 0 1 1-2.46-2.46 2.46 2.46 0 0 1 2.46 2.46zM62.09 273.74a2.46 2.46 0 1 1-2.46-2.46 2.46 2.46 0 0 1 2.46 2.46zM9.51 305.53a2.45 2.45 0 1 1-2.45-2.45 2.45 2.45 0 0 1 2.45 2.45zM41.87 264.64a2.44 2.44 0 1 1-2.44-2.44 2.44 2.44 0 0 1 2.44 2.44zM44.55 303.98a2.44 2.44 0 1 1-2.44-2.44 2.44 2.44 0 0 1 2.44 2.44zM31.86 306.23a2.36 2.36 0 1 1-2.36-2.36 2.36 2.36 0 0 1 2.36 2.36zM474.06 269.61a2.28 2.28 0 1 1-2.28-2.28 2.28 2.28 0 0 1 2.28 2.28zM10.93 312.69a2.27 2.27 0 1 1-2.27-2.27 2.27 2.27 0 0 1 2.27 2.27zM27.05 287.33a2.22 2.22 0 1 1-2.22-2.22 2.22 2.22 0 0 1 2.22 2.22zM358.6 229.89a2.21 2.21 0 1 1-2.21-2.21 2.21 2.21 0 0 1 2.21 2.21z" opacity=".7"/><path d="M5.34 315.6a2.2 2.2 0 1 1-2.2-2.2 2.2 2.2 0 0 1 2.2 2.2zM408.93 18.8a2.2 2.2 0 1 1-2.2-2.2 2.2 2.2 0 0 1 2.2 2.2zM141.71 254.82a2.2 2.2 0 1 1-2.2-2.2 2.2 2.2 0 0 1 2.2 2.2zM563.49 218.9a2.19 2.19 0 1 1-2.19-2.19 2.19 2.19 0 0 1 2.19 2.19z" opacity=".7"/><path d="M4.9 315.1a2.14 2.14 0 1 1-2.14-2.14 2.14 2.14 0 0 1 2.14 2.14zM90.15 302.17a2.14 2.14 0 1 1-2.14-2.14 2.14 2.14 0 0 1 2.14 2.14zM327.25 258.77a2.13 2.13 0 1 1-2.13-2.13 2.13 2.13 0 0 1 2.13 2.13zM400.16 263.25a2.11 2.11 0 1 1-2.11-2.11 2.11 2.11 0 0 1 2.11 2.11z" opacity=".7"/></g><g fill="#2a3f5f" font-family="Roboto, Helvetica, sans-serif" font-size="12" font-weight="bold" text-anchor="middle"><text x="72.34" y="267.21" transform="translate(0 3)">China</text><text x="15.37" y="306.05" transform="translate(0 3)">India</text><text x="473.46" y="187.19" transform="translate(0 3)">United States</text><text x="72.16" y="215.06" transform="translate(0 3)">Russian Federation</text><text x="244.89" y="253.82" transform="translate(0 3)">Japan</text><text x="24.07" y="248.17" transform="translate(0 3)">Iran</text><text x="344.89" y="250.87" transform="translate(0 3)">Germany</text><text x="292.79" y="254.29" transform="translate(0 3)">France</text><text x="238.16" y="269.3" transform="translate(0 3)">Italy</text><text x="225.14" y="206.12" transform="translate(0 3)">Korea</text><text x="201.55" y="268.53" transform="translate(0 3)">Spain</text><text x="336.9" y="175.1" transform="translate(0 3)">Canada</text><text x="121.15" y="265.94" transform="translate(0 3)">Poland</text><text x="366.78" y="214.17" transform="translate(0 3)">Australia</text><text x="415.89" y="244.66" transform="translate(0 3)">Sweden</text><text x="558.72" y="269.6" transform="translate(0 3)">Switzerland</text><text x="471.78" y="269.61" transform="translate(0 3)">Denmark</text><text x="406.73" y="18.8" transform="translate(0 3)">Singapore</text><text x="561.3" y="218.9" transform="translate(0 3)">Norway</text><text x="398.05" y="263.25" transform="translate(0 3)">Ireland</text></g></g></g><g font-family="Roboto, Helvetica, sans-serif"><g font-weight="bold"><g fill="#2a3f5f"><g font-size="12"><g text-anchor="middle"><text y="332" transform="translate(46)">0</text><text y="332" transform="translate(126.24)">10k</text><text y="332" transform="translate(206.48)">20k</text><text y="332" transform="translate(286.72)">30k</text><text y="332" transform="translate(366.96)">40k</text><text y="332" transform="translate(447.2)">50k</text><text y="332" transform="translate(527.44)">60k</text><text y="332" transform="translate(607.68)">70k</text></g><g text-anchor="end"><text x="45" y="4.2" transform="translate(0 319)">0</text><text x="45" y="4.2" transform="translate(0 240.87)">50</text><text x="45" y="4.2" transform="translate(0 162.74)">100</text><text x="45" y="4.2" transform="translate(0 84.61)">150</text></g></g><g font-size="14" text-anchor="middle"><text x="250" y="359.3" transform="translate(0 -3.3)">Average Income (US$)</text><text x="4.944" y="161" transform="rotate(-90 8.97 156.97)">Energy Consumption per Capita (MWh)</text></g></g><g font-size="20"><text x="60" y="45">High-income countries like</text><text x="60" y="75">Switzerland or Denmark have a</text><text x="60" y="105">very low energy consumption,</text><text x="60" y="135">less than half compared to the</text><text x="60" y="165">US or Canada</text></g></g><g fill="#2a3f5f" font-size="12"><text x="450" y="345">2021 (Data: World Bank, US EIA)</text><text x="450" y="357" font-style="italic">https://industrydecarbonization.com</text></g></g></svg>